# xmcd
#
# Track frame offsets:
#	187
#	11512
#	23212
#	35062
#	46762
#	59662
#	79612
#	89887
#	111862
#	124387
#
# Disc length: 1880
#
# Revision: 2
# Processed by: cddbd v1.5.1PL0 Copyright (c) Steve Scherf et al.
# Submitted via: ExactAudioCopy v0.90a9
# Normalized: r1:DSETVAR1
#
DISCID=8607560a
DTITLE=Various Artist - Blues Brother Soul Sister
DYEAR=1900
DGENRE=Blues
TTITLE0=John Lee Hooker - Boom Boom
TTITLE1=Erma Franklin - (Take A Little) Piece Of My Heart
TTITLE2=Sam and Dave - Soul Man
TTITLE3=Etta James - I'd Rather Go Blind
TTITLE4=Booker T and the MGs - Green Onions
TTITLE5=The Isley Brothers - Shout
TTITLE6=Aretha Franklin - Think
TTITLE7=Staple Singers - Respect Yourself
TTITLE8=Bob and Earl - Harlem Shuffle
TTITLE9=Al Green - Take Me To The River
EXTD=Luiggi Records (Anunciado en TV)
EXTT0=
EXTT1=
EXTT2=
EXTT3=
EXTT4=
EXTT5=
EXTT6=
EXTT7=
EXTT8=
EXTT9=
PLAYORDER=
